<?xml version="1.0" encoding="iso-8859-1"?>
<!-- Generator: Adobe Illustrator 16.0.0, SVG Export Plug-In . SVG Version: 6.00 Build 0)  -->
<!DOCTYPE svg PUBLIC "-//W3C//DTD SVG 1.1//EN" "http://www.w3.org/Graphics/SVG/1.1/DTD/svg11.dtd">
<svg version="1.1" xmlns="http://www.w3.org/2000/svg" xmlns:xlink="http://www.w3.org/1999/xlink" x="0px" y="0px" width="512px"
	 height="512px" viewBox="0 0 512 512" style="enable-background:new 0 0 512 512;" xml:space="preserve">
<g id="_x36_05_x2C__Code_x2C__coding_x2C__file_x2C__programming_x2C__script">
	<g>
		<g>
			<g>
				<g>
					<path style="fill:#010101;" d="M422.947,407.438H108.229c-1.657,0-3-1.343-3-3V40.547c0-1.657,1.343-3,3-3h232.359
						c0.796,0,1.559,0.316,2.122,0.879l82.359,82.388c0.562,0.563,0.878,1.326,0.878,2.121v281.504
						C425.947,406.096,424.604,407.438,422.947,407.438z M111.229,401.438h308.719V124.177l-80.603-80.63H111.229V401.438z"/>
				</g>
				<g>
					<path style="fill:#010101;" d="M422.967,125.935c-0.006-0.001-0.014,0-0.02,0h-82.359c-1.657,0-3-1.343-3-3V40.547
						c0-1.213,0.731-2.308,1.853-2.772c1.122-0.463,2.412-0.207,3.27,0.651l82.163,82.191c0.668,0.55,1.094,1.384,1.094,2.317
						C425.967,124.591,424.624,125.935,422.967,125.935z M343.588,119.935h72.118l-72.118-72.143V119.935z"/>
				</g>
				<g>
					<path style="fill:#010101;" d="M400.822,425.415H86.105c-1.657,0-3-1.343-3-3V58.521c0-1.657,1.343-3,3-3h22.123
						c1.657,0,3,1.343,3,3v342.917h289.594c1.657,0,3,1.343,3,3v17.977C403.822,424.072,402.479,425.415,400.822,425.415z
						 M89.105,419.415h308.717v-11.977H108.229c-1.657,0-3-1.343-3-3V61.521H89.105V419.415z"/>
				</g>
				<g>
					<path style="fill:#010101;" d="M382.848,440.625H68.129c-1.657,0-3-1.343-3-3V73.731c0-1.657,1.343-3,3-3h17.977
						c1.657,0,3,1.343,3,3v345.684h293.742c1.657,0,3,1.343,3,3v15.21C385.848,439.282,384.505,440.625,382.848,440.625z
						 M71.129,434.625h308.719v-9.21H86.105c-1.657,0-3-1.343-3-3V76.731H71.129V434.625z"/>
				</g>
				<g>
					<path style="fill:#010101;" d="M265.603,366.994c-56.042,0-101.637-45.594-101.637-101.637
						c0-56.042,45.594-101.637,101.637-101.637c56.042,0,101.635,45.594,101.635,101.637
						C367.237,321.4,321.645,366.994,265.603,366.994z M265.603,169.721c-52.734,0-95.637,42.902-95.637,95.637
						s42.902,95.637,95.637,95.637c52.733,0,95.635-42.902,95.635-95.637S318.336,169.721,265.603,169.721z"/>
				</g>
				<g>
					<path style="fill:#010101;" d="M291.299,307.275c-0.522,0-1.045-0.137-1.511-0.408c-0.922-0.538-1.489-1.524-1.489-2.592
						v-14.748c0-1.081,0.581-2.078,1.522-2.61l38.08-21.56l-38.08-21.558c-0.941-0.533-1.522-1.53-1.522-2.611v-14.749
						c0-1.067,0.567-2.054,1.489-2.592c0.92-0.538,2.059-0.545,2.988-0.019l55.742,31.543c0.94,0.532,1.522,1.53,1.522,2.611v14.75
						c0,1.081-0.582,2.078-1.522,2.611l-55.742,31.543C292.317,307.146,291.809,307.275,291.299,307.275z M294.299,291.276v7.854
						l49.742-28.147v-11.252l-49.742-28.147v7.855l41.169,23.308c0.941,0.532,1.522,1.529,1.522,2.61s-0.581,2.078-1.521,2.61
						L294.299,291.276z"/>
				</g>
				<g>
					<path style="fill:#010101;" d="M239.906,307.275c-0.509,0-1.019-0.13-1.478-0.389l-55.742-31.543
						c-0.941-0.533-1.522-1.53-1.522-2.611v-14.75c0-1.081,0.582-2.079,1.522-2.611l55.742-31.543
						c0.929-0.526,2.067-0.518,2.989,0.019c0.922,0.538,1.489,1.524,1.489,2.592v14.749c0,1.081-0.582,2.078-1.522,2.611
						l-38.08,21.558l38.08,21.56c0.94,0.532,1.522,1.529,1.522,2.61v14.748c0,1.067-0.567,2.054-1.489,2.592
						C240.951,307.139,240.429,307.275,239.906,307.275z M187.164,270.983l49.742,28.147v-7.854l-41.169-23.309
						c-0.94-0.532-1.522-1.529-1.522-2.61s0.582-2.078,1.522-2.61l41.169-23.308v-7.855l-49.742,28.147V270.983z"/>
				</g>
				<g>
					<path style="fill:#010101;" d="M245.897,322.978c-0.338,0-0.682-0.058-1.018-0.179c-1.559-0.563-2.366-2.282-1.804-3.84
						l39.407-109.237c0.563-1.559,2.281-2.369,3.84-1.804c1.559,0.562,2.366,2.281,1.805,3.84l-39.408,109.236
						C248.278,322.217,247.126,322.978,245.897,322.978z"/>
				</g>
				<g>
					<path style="fill:#010101;" d="M350.555,455.951H38.545c-1.657,0-3-1.343-3-3s1.343-3,3-3h312.01c1.657,0,3,1.343,3,3
						S352.212,455.951,350.555,455.951z"/>
				</g>
				<g>
					<path style="fill:#010101;" d="M437.149,474.935H221.24c-1.657,0-3-1.343-3-3s1.343-3,3-3h215.909c1.657,0,3,1.343,3,3
						S438.807,474.935,437.149,474.935z"/>
				</g>
				<g>
					<path style="fill:#010101;" d="M486.236,474.935h-26.994c-1.657,0-3-1.343-3-3s1.343-3,3-3h26.994c1.657,0,3,1.343,3,3
						S487.894,474.935,486.236,474.935z"/>
				</g>
				<g>
					<path style="fill:#010101;" d="M128.566,474.358H26.243c-1.657,0-3-1.343-3-3s1.343-3,3-3h102.323c1.657,0,3,1.343,3,3
						S130.223,474.358,128.566,474.358z"/>
				</g>
			</g>
		</g>
	</g>
</g>
<g id="Layer_1">
</g>
</svg>
